<svg xmlns="http://www.w3.org/2000/svg" viewBox="0 0 32 32" width="32" height="32"><defs><pattern id="poiP" width="5" height="5" patternUnits="userSpaceOnUse"><circle cx="2.5" cy="2.5" r="1" fill="#fff" opacity="0.3"/></pattern></defs><circle cx="16" cy="16" r="14" fill="#A040A0"/><circle cx="16" cy="16" r="14" fill="url(#poiP)"/><path d="M16 9 a6 6 0 0 1 6 6 v2 a2 2 0 0 1 -2 2 v2 h-1 v-2 h-2 v3 h-2 v-3 h-2 v2 h-1 v-2 a2 2 0 0 1 -2 -2 v-2 a6 6 0 0 1 6 -6 Z" fill="#fff"/><circle cx="13.5" cy="15.5" r="1.4" fill="#A040A0"/><circle cx="18.5" cy="15.5" r="1.4" fill="#A040A0"/></svg>
